# xmcd CD database file generated by OrangeCD 5.2
#
# Track frame offsets:
#	150
#	13668
#	28415
#	40691
#	50423
#	58481
#	68264
#	79078
#	91547
#	101247
#	113937
#	124001
#	135653
#	144923
#	155400
#	165039
#
# Disc length: 2308 seconds
#
# Revision: 2
# Processed by: cddbd v1.5PL3 Copyright (c) Steve Scherf et al.
# Submitted via: OrangeCD 5.2
#
DISCID=c8090210
DTITLE=Willie Nelson - Everything But You
DYEAR=1999
DGENRE=Country
TTITLE0=Everything But You
TTITLE1=And, So Will You Love Me
TTITLE2=Shelter Of My Arms
TTITLE3=Let's Pretend
TTITLE4=Things To Remember
TTITLE5=I Didn't Sleep A Wink
TTITLE6=December Day
TTITLE7=Follow Me Around
TTITLE8=Ashamed
TTITLE9=I Don't Just Understand
TTITLE10=Pride Wins Again
TTITLE11=I'll Stay Around
TTITLE12=One Step Beyond
TTITLE13=I Feel Sorry For Him
TTITLE14=Falf A Man
TTITLE15=You Wouldn't Cross The Street
EXTD=
EXTT0=
EXTT1=
EXTT2=
EXTT3=
EXTT4=
EXTT5=
EXTT6=
EXTT7=
EXTT8=
EXTT9=
EXTT10=
EXTT11=
EXTT12=
EXTT13=
EXTT14=
EXTT15=
PLAYORDER=
